<svg width="37" height="36" viewBox="0 0 37 36" fill="none" xmlns="http://www.w3.org/2000/svg">
<rect x="0.0273438" width="36" height="36" rx="18" fill="#230F8A"/>
<path d="M21.8679 8.83301H14.1862C10.8495 8.83301 8.86035 10.8222 8.86035 14.1588V21.8313C8.86035 25.1772 10.8495 27.1663 14.1862 27.1663H21.8587C25.1954 27.1663 27.1845 25.1772 27.1845 21.8405V14.1588C27.1937 10.8222 25.2045 8.83301 21.8679 8.83301ZM17.5687 22.8122C17.5687 23.1422 17.2387 23.3622 16.9362 23.2338C15.827 22.7572 14.3787 22.3172 13.3704 22.1888L13.1962 22.1705C12.637 22.0972 12.1787 21.5747 12.1787 21.0063V13.948C12.1787 13.2422 12.747 12.7197 13.4437 12.7747C14.5895 12.8663 16.2854 13.4163 17.3487 14.0213C17.4954 14.1038 17.5687 14.2597 17.5687 14.4155V22.8122ZM23.8754 20.9972C23.8754 21.5655 23.417 22.088 22.8579 22.1613L22.6654 22.1797C21.6662 22.3172 20.227 22.748 19.1179 23.2155C18.8154 23.3438 18.4854 23.1238 18.4854 22.7938V14.4063C18.4854 14.2413 18.5679 14.0855 18.7145 14.003C19.7779 13.4072 21.437 12.8755 22.5645 12.7747H22.6012C23.307 12.7747 23.8754 13.343 23.8754 14.0488V20.9972Z" fill="#FCFCFC"/>
</svg>
