<svg width="56" height="57" viewBox="0 0 56 57" fill="none" xmlns="http://www.w3.org/2000/svg">
<rect x="0.795898" y="0.724609" width="55" height="56" rx="27.5" fill="url(#paint0_linear_9_3479)"/>
<rect x="10.7959" y="10.7246" width="36" height="36" rx="18" fill="#3B3B8F"/>
<path d="M28.3372 37.0221C33.1467 37.0221 37.0456 33.1233 37.0456 28.3138C37.0456 23.5043 33.1467 19.6055 28.3372 19.6055C23.5278 19.6055 19.6289 23.5043 19.6289 28.3138C19.6289 33.1233 23.5278 37.0221 28.3372 37.0221Z" fill="#FCFCFC"/>
<path d="M37.3203 37.9385C37.1553 37.9385 36.9903 37.8743 36.8711 37.7552L35.1661 36.0502C34.9186 35.8027 34.9186 35.3993 35.1661 35.1427C35.4136 34.8952 35.8169 34.8952 36.0736 35.1427L37.7786 36.8477C38.0261 37.0952 38.0261 37.4985 37.7786 37.7552C37.6503 37.8743 37.4853 37.9385 37.3203 37.9385Z" fill="#FCFCFC"/>
<defs>
<linearGradient id="paint0_linear_9_3479" x1="0.795898" y1="0.724609" x2="57.3516" y2="2.3425" gradientUnits="userSpaceOnUse">
<stop stop-color="#3857F6"/>
<stop offset="1" stop-color="#0B30EF"/>
</linearGradient>
</defs>
</svg>
