<svg width="23" height="23" viewBox="0 0 23 23" fill="none" xmlns="http://www.w3.org/2000/svg">
<path d="M11.3376 20.0225C16.1471 20.0225 20.0459 16.1236 20.0459 11.3142C20.0459 6.50469 16.1471 2.60583 11.3376 2.60583C6.5281 2.60583 2.62924 6.50469 2.62924 11.3142C2.62924 16.1236 6.5281 20.0225 11.3376 20.0225Z" fill="#FCFCFC"/>
<path d="M20.3209 20.9392C20.1559 20.9392 19.9909 20.8751 19.8717 20.7559L18.1667 19.0509C17.9192 18.8034 17.9192 18.4001 18.1667 18.1434C18.4142 17.8959 18.8176 17.8959 19.0742 18.1434L20.7792 19.8484C21.0267 20.0959 21.0267 20.4992 20.7792 20.7559C20.6509 20.8751 20.4859 20.9392 20.3209 20.9392Z" fill="#FCFCFC"/>
</svg>
